<?xml version="1.0" standalone="no"?>
<!DOCTYPE svg PUBLIC "-//W3C//DTD SVG 20010904//EN"
 "http://www.w3.org/TR/2001/REC-SVG-20010904/DTD/svg10.dtd">
<svg version="1.0" xmlns="http://www.w3.org/2000/svg"
 width="713.000000pt" height="719.000000pt" viewBox="0 0 713.000000 719.000000"
 preserveAspectRatio="xMidYMid meet">

<g transform="translate(0.000000,719.000000) scale(0.100000,-0.100000)"
fill="#000000" stroke="none">
<path d="M3870 6792 c-85 -57 -276 -184 -425 -282 -1057 -693 -1620 -997
-1953 -1055 -113 -20 -415 -20 -497 0 -156 37 -282 121 -478 320 -162 164
-157 164 -110 10 30 -98 100 -238 161 -325 62 -88 210 -239 305 -311 294 -222
789 -408 1172 -439 134 -11 202 -41 250 -108 l30 -44 3 -1206 2 -1206 85 -87
c47 -47 85 -92 85 -99 0 -23 -61 -69 -135 -99 -91 -38 -275 -89 -472 -131
-150 -32 -174 -40 -205 -68 -25 -21 -22 -44 10 -75 41 -39 110 -67 168 -67 65
0 81 -16 68 -68 l-9 -37 -80 -6 c-44 -4 -172 -12 -285 -19 -565 -31 -860 -69
-860 -110 0 -35 190 -100 542 -185 299 -73 345 -98 282 -155 -57 -51 -276
-106 -539 -136 l-60 -7 60 -19 c113 -36 360 -97 500 -124 121 -24 166 -27 340
-28 169 -1 210 2 263 18 34 10 62 22 62 27 0 4 -16 17 -35 29 -38 23 -60 54
-50 70 14 23 95 30 314 29 126 0 234 2 240 6 17 10 13 50 -7 68 -58 53 -299
101 -615 123 -90 6 -99 8 -109 30 -23 50 38 100 161 133 146 40 314 54 666 56
341 2 375 5 438 36 113 58 -32 116 -502 199 -181 32 -265 59 -282 93 -37 67
159 156 415 187 146 18 206 53 206 122 0 53 -28 104 -110 198 -74 87 -108 148
-137 250 -21 77 -22 311 -4 1035 14 540 14 1140 1 1298 -12 146 -25 196 -59
237 -37 45 -100 57 -396 75 -547 34 -738 87 -818 224 l-18 30 28 7 c391 85
1176 402 1728 697 214 115 431 218 525 249 88 30 105 32 225 32 108 0 149 -5
240 -27 364 -91 828 -263 1593 -591 396 -170 422 -177 468 -131 19 19 23 31
18 52 -10 44 -53 117 -97 168 -41 46 -67 58 -1087 515 l-1045 468 -10 130 -10
130 -155 -106z"/>
<path d="M1650 500 c-25 -15 14 -46 137 -106 62 -31 113 -61 113 -68 0 -21
-31 -43 -92 -66 -32 -12 -58 -25 -58 -30 0 -17 55 -38 141 -56 120 -24 479
-14 546 16 l45 20 -36 42 c-74 86 -39 104 228 118 186 9 270 22 319 46 50 26
32 35 -50 27 -121 -12 -623 -9 -768 6 -71 7 -213 24 -315 37 -214 28 -191 26
-210 14z"/>
</g>
</svg>
